<svg width="200" height="37" viewBox="0 0 200 37" fill="none" xmlns="http://www.w3.org/2000/svg">
<g>
	<g>
		<g>
			<path d="M32.25,37c-1.34,0-2.6-0.52-3.55-1.47c-0.95-0.95-1.47-2.21-1.47-3.55c0-1.34,0.52-2.6,1.47-3.54
				c0.95-0.95,2.21-1.47,3.55-1.47c1.34,0,2.6,0.52,3.54,1.47c1.96,1.96,1.96,5.14,0,7.09C34.85,36.47,33.59,37,32.25,37z"/>
		</g>
		<g>
			<path d="M5.02,10.26c-1.34,0-2.6-0.52-3.55-1.47C0.52,7.84,0,6.58,0,5.24c0-1.34,0.52-2.6,1.47-3.54
				c0.95-0.95,2.21-1.47,3.55-1.47c1.34,0,2.6,0.52,3.54,1.47c0.95,0.95,1.47,2.21,1.47,3.55c0,1.34-0.52,2.6-1.47,3.55
				C7.61,9.74,6.35,10.26,5.02,10.26z"/>
		</g>
		<path d="M32.03,10.11c-1.34,0-2.6-0.52-3.55-1.47c-1.95-1.96-1.96-5.14,0-7.09c0.95-0.95,2.21-1.47,3.55-1.47
			c1.34,0,2.6,0.52,3.55,1.47c1.95,1.95,1.95,5.14,0,7.09C34.63,9.59,33.37,10.11,32.03,10.11z"/>
		<g>
			<path d="M5.15,37c-1.34,0-2.6-0.52-3.55-1.47c-0.95-0.95-1.47-2.21-1.47-3.55c0-1.34,0.52-2.6,1.47-3.55
				c0.2-0.2,0.42-0.38,0.71-0.57c0.09-0.06,0.16-0.11,0.25-0.16c0.19-0.11,0.37-0.2,0.54-0.28c0.09-0.04,0.19-0.09,0.29-0.12
				c0.18-0.07,0.38-0.13,0.61-0.18c0.05-0.01,0.09-0.02,0.13-0.03c0.03-0.01,0.05-0.02,0.08-0.02l1.12-0.08
				c0.14,0.01,0.29,0.02,0.45,0.04l0.06,0.01c0.04,0,0.09,0.01,0.14,0.01l0.05,0l0.05,0.01h0.04c0.08,0,0.16,0,0.24,0
				c1.92,0,3.82-0.82,5.21-2.25c1.38-1.42,2.14-3.33,2.09-5.25l0-0.06l-0.01-0.06c-0.01-0.05-0.01-0.11-0.02-0.16
				c0-0.06-0.01-0.13-0.02-0.19l-0.01-0.11c-0.01-0.1-0.02-0.19-0.03-0.29l0.09-1.12c0.01-0.03,0.02-0.05,0.02-0.08l0.02-0.07
				c0.05-0.21,0.11-0.43,0.19-0.63c0.04-0.12,0.08-0.2,0.12-0.29c0.09-0.2,0.18-0.37,0.29-0.56c0.05-0.08,0.09-0.16,0.15-0.24
				c0.2-0.3,0.39-0.52,0.58-0.71c0.95-0.95,2.21-1.47,3.55-1.47c1.34,0,2.6,0.52,3.55,1.47c1.95,1.96,1.95,5.14,0,7.09
				c-0.2,0.2-0.42,0.38-0.71,0.57c-0.08,0.06-0.16,0.1-0.24,0.15c-0.18,0.11-0.36,0.2-0.54,0.29c-0.1,0.04-0.2,0.09-0.29,0.12
				c-0.19,0.07-0.4,0.13-0.61,0.18l-0.12,0.03c-0.03,0.01-0.05,0.02-0.08,0.02l-1.13,0.08c-0.13-0.01-0.27-0.02-0.42-0.04l-0.1-0.01
				c-0.03-0.01-0.09-0.01-0.14-0.01l-0.04,0l-0.06-0.01H17.6c-0.08,0-0.16,0-0.24,0c-1.92,0-3.82,0.82-5.21,2.25
				c-1.38,1.42-2.14,3.34-2.09,5.25l0,0.06l0.01,0.06c0.01,0.05,0.01,0.11,0.02,0.16c0,0.06,0.01,0.13,0.02,0.19
				c0,0.04,0.01,0.11,0.02,0.17c0.01,0.08,0.02,0.15,0.02,0.23v0.03l-0.08,1.07c-0.01,0.02-0.04,0.15-0.05,0.18
				c-0.05,0.23-0.12,0.44-0.18,0.62c-0.04,0.1-0.08,0.19-0.12,0.28c-0.09,0.19-0.18,0.37-0.29,0.56c-0.05,0.08-0.1,0.17-0.16,0.25
				c-0.19,0.27-0.37,0.5-0.57,0.7C7.75,36.47,6.49,37,5.15,37L5.15,37z"/>
		</g>
		<path d="M18.69,37c-1.34,0-2.6-0.52-3.55-1.47c-0.95-0.95-1.47-2.21-1.47-3.54c0-1.34,0.52-2.6,1.47-3.54
			c0.19-0.19,0.41-0.37,0.71-0.58c0.07-0.05,0.15-0.1,0.24-0.15c0.18-0.11,0.36-0.2,0.55-0.29c0.1-0.04,0.19-0.09,0.29-0.13
			c0.19-0.07,0.39-0.13,0.6-0.18c0,0,0.18-0.05,0.2-0.06l1.13-0.08c0.13,0.01,0.28,0.03,0.43,0.04l0.08,0.01
			c0.06,0.01,0.1,0.01,0.15,0.01c0.02,0,0.04,0,0.06,0l0.04,0l0.05,0c0.08,0,0.17,0,0.25,0c1.92,0,3.82-0.82,5.2-2.24
			c1.38-1.42,2.14-3.34,2.09-5.25l-0.01-0.23l-0.02-0.03c0-0.01,0-0.02,0-0.03c0-0.05-0.01-0.11-0.01-0.16l-0.02-0.16
			c-0.01-0.09-0.02-0.18-0.03-0.26l0.08-1.09c0.01-0.03,0.05-0.16,0.05-0.2c0.06-0.26,0.12-0.45,0.18-0.62
			c0.04-0.1,0.08-0.19,0.12-0.29c0.08-0.17,0.17-0.35,0.29-0.55l0.02-0.04c0.04-0.07,0.08-0.13,0.12-0.19
			c0.21-0.3,0.39-0.52,0.58-0.72c0.95-0.95,2.21-1.47,3.55-1.47c1.34,0,2.6,0.52,3.54,1.47c1.95,1.95,1.95,5.14,0,7.09
			c-0.19,0.19-0.42,0.37-0.71,0.57c-0.06,0.04-0.11,0.07-0.17,0.1l-0.09,0.05c-0.17,0.1-0.35,0.2-0.53,0.28
			c-0.1,0.05-0.19,0.09-0.29,0.13c-0.18,0.07-0.37,0.12-0.61,0.18c-0.05,0.01-0.09,0.02-0.13,0.04c-0.03,0.01-0.05,0.02-0.08,0.02
			l-1.11,0.08c-0.16-0.01-0.34-0.03-0.51-0.05c-0.06-0.01-0.1-0.01-0.15-0.01c-0.02,0-0.03,0-0.05,0l-0.09-0.01
			c-0.08,0-0.17,0-0.25,0c-1.92,0-3.82,0.82-5.2,2.24c-1.38,1.42-2.14,3.34-2.09,5.25l0,0.06l0.01,0.06
			c0.01,0.06,0.01,0.11,0.02,0.17c0,0.06,0.01,0.12,0.01,0.17c0,0.05,0.01,0.11,0.02,0.17c0.01,0.08,0.02,0.17,0.02,0.25l-0.08,1.1
			c-0.01,0.02-0.05,0.17-0.05,0.17c-0.05,0.23-0.11,0.44-0.18,0.63c-0.03,0.09-0.07,0.18-0.11,0.27l-0.01,0.03
			c-0.08,0.18-0.18,0.36-0.28,0.53c-0.05,0.09-0.1,0.17-0.16,0.25c-0.2,0.28-0.38,0.51-0.58,0.71C21.28,36.47,20.03,37,18.69,37
			L18.69,37z"/>
		<path d="M5.15,23.46c-1.34,0-2.6-0.52-3.55-1.47c-0.95-0.95-1.47-2.21-1.47-3.55c0-1.34,0.52-2.6,1.47-3.54
			c0.19-0.19,0.42-0.38,0.71-0.58c0.08-0.05,0.16-0.1,0.25-0.15c0.17-0.1,0.35-0.2,0.54-0.28c0.1-0.04,0.19-0.09,0.3-0.13
			c0.18-0.07,0.39-0.13,0.6-0.17l0.13-0.04c0.02-0.01,0.05-0.01,0.07-0.02l1.13-0.08c0.15,0.01,0.31,0.03,0.47,0.05l0.03,0
			c0.06,0.01,0.1,0.01,0.15,0.01c0.02,0,0.03,0,0.05,0l0.05,0.01l0.05,0c0.08,0,0.17,0,0.25,0c1.92,0,3.82-0.82,5.2-2.24
			c1.38-1.42,2.14-3.34,2.09-5.25l0-0.06l-0.01-0.05c-0.01-0.06-0.01-0.12-0.02-0.18c0-0.05-0.01-0.1-0.01-0.15L13.6,5.43
			c-0.01-0.09-0.02-0.19-0.03-0.28l0.08-1.05l0.01-0.02V4.05c0.01-0.02,0.05-0.16,0.05-0.16c0.06-0.27,0.12-0.46,0.18-0.64
			c0.04-0.09,0.08-0.19,0.12-0.29c0.08-0.18,0.18-0.36,0.29-0.55l0.02-0.03c0.04-0.07,0.09-0.14,0.14-0.22
			c0.2-0.29,0.38-0.51,0.57-0.7C15.98,0.52,17.24,0,18.58,0c1.34,0,2.6,0.52,3.55,1.47c1.95,1.96,1.95,5.14,0,7.09
			c-0.19,0.19-0.42,0.38-0.71,0.57c-0.08,0.05-0.14,0.09-0.21,0.13l-0.04,0.02c-0.18,0.11-0.37,0.21-0.54,0.28
			c-0.1,0.05-0.2,0.09-0.29,0.12c-0.19,0.07-0.39,0.13-0.61,0.18c-0.05,0.01-0.09,0.02-0.13,0.04c-0.03,0.01-0.05,0.02-0.08,0.02
			l-1.11,0.08c-0.14-0.01-0.29-0.03-0.45-0.05l-0.07-0.01c-0.05-0.01-0.1-0.01-0.14-0.01c-0.02,0-0.04,0-0.06,0l-0.04,0l-0.05,0
			c-0.08,0-0.17,0-0.25,0c-1.92,0-3.82,0.82-5.2,2.24c-1.38,1.42-2.14,3.34-2.09,5.25l0,0.06l0.01,0.06
			c0.01,0.06,0.01,0.11,0.02,0.17c0,0.06,0.01,0.12,0.01,0.18c0,0.05,0.01,0.11,0.02,0.17c0.01,0.08,0.02,0.17,0.02,0.25l-0.08,1.09
			c-0.01,0.03-0.02,0.06-0.02,0.09l-0.03,0.1c-0.06,0.24-0.11,0.45-0.18,0.63C9.79,20.3,9.75,20.4,9.7,20.5
			c-0.08,0.18-0.18,0.36-0.28,0.54c-0.05,0.09-0.1,0.17-0.15,0.25c-0.21,0.3-0.38,0.52-0.58,0.71C7.74,22.94,6.49,23.46,5.15,23.46
			L5.15,23.46z"/>
	</g>
	<g>
		<path d="M51.69,7.29h16.49v4.95H57.58v4.36h7.75v4.62h-7.75v4.36h10.61v4.95H51.69V7.29z"/>
		<path d="M70.51,5.96h5.85v24.57h-5.85V5.96z"/>
		<path d="M81.37,28.84c-1.78-1.46-2.68-3.54-2.68-6.22c0-2.64,0.79-4.72,2.38-6.25c1.58-1.53,3.87-2.29,6.87-2.29
			c1.91,0,3.54,0.36,4.9,1.08c1.36,0.72,2.39,1.71,3.09,2.96c0.7,1.25,1.05,2.67,1.05,4.24v2.16H84.24
			c0.22,0.89,0.78,1.53,1.66,1.93c0.89,0.4,2.09,0.6,3.62,0.6c1.04,0,2.11-0.09,3.21-0.27c1.1-0.18,2.04-0.42,2.84-0.73v3.86
			c-0.82,0.33-1.85,0.6-3.08,0.81c-1.23,0.21-2.49,0.32-3.77,0.32C85.6,31.03,83.15,30.3,81.37,28.84z M91.46,20.86
			c-0.09-0.86-0.44-1.54-1.06-2.03c-0.62-0.49-1.47-0.73-2.56-0.73c-1.06,0-1.91,0.25-2.53,0.75c-0.62,0.5-0.98,1.17-1.06,2.01
			H91.46z"/>
		<path d="M101.2,28.84c-1.71-1.46-2.56-3.55-2.56-6.25c0-2.7,0.86-4.8,2.58-6.28c1.72-1.48,4.04-2.23,6.96-2.23
			c1.31,0,2.53,0.13,3.67,0.38c1.14,0.26,2.09,0.62,2.84,1.08v4.55c-1.35-0.98-3.14-1.46-5.35-1.46c-1.42,0-2.55,0.33-3.41,0.98
			c-0.85,0.65-1.28,1.65-1.28,2.98c0,1.35,0.42,2.34,1.26,2.98c0.84,0.63,1.97,0.95,3.39,0.95c2.15,0,4.01-0.51,5.59-1.53v4.52
			c-1.68,1.02-3.93,1.53-6.75,1.53C105.22,31.03,102.9,30.3,101.2,28.84z"/>
		<path d="M119.45,12.25h-6.55V7.29h19.02v4.95h-6.58v18.28h-5.88V12.25z"/>
		<path d="M131.25,14.57h5.65v1.99c0.62-0.71,1.5-1.26,2.63-1.65c1.13-0.39,2.38-0.58,3.76-0.58v4.49c-1.46,0-2.75,0.21-3.87,0.63
			c-1.12,0.42-1.89,1.05-2.31,1.89v9.18h-5.85V14.57z"/>
		<path d="M148.44,29.95c-1.49-0.72-2.63-1.72-3.44-2.99c-0.81-1.27-1.21-2.74-1.21-4.4c0-1.66,0.4-3.13,1.21-4.41
			c0.81-1.27,1.96-2.27,3.44-2.99c1.48-0.72,3.21-1.08,5.19-1.08s3.7,0.36,5.19,1.08c1.48,0.72,2.63,1.72,3.44,2.99
			c0.81,1.27,1.21,2.74,1.21,4.41c0,1.66-0.4,3.13-1.21,4.4c-0.81,1.27-1.96,2.27-3.44,2.99c-1.48,0.72-3.21,1.08-5.19,1.08
			S149.92,30.67,148.44,29.95z M156.43,25.43c0.7-0.7,1.05-1.66,1.05-2.88c0-1.22-0.35-2.18-1.05-2.88c-0.7-0.7-1.63-1.05-2.81-1.05
			c-1.17,0-2.11,0.35-2.81,1.05c-0.7,0.7-1.05,1.66-1.05,2.88c0,1.22,0.35,2.18,1.05,2.88c0.7,0.7,1.63,1.05,2.81,1.05
			C154.8,26.48,155.73,26.13,156.43,25.43z"/>
		<path d="M162.96,14.57h5.85l3.62,9.28l3.59-9.28h5.85l-6.68,15.96h-5.55L162.96,14.57z"/>
		<path d="M184.39,28.84c-1.78-1.46-2.68-3.54-2.68-6.22c0-2.64,0.79-4.72,2.38-6.25c1.58-1.53,3.87-2.29,6.87-2.29
			c1.91,0,3.54,0.36,4.9,1.08c1.36,0.72,2.39,1.71,3.09,2.96c0.7,1.25,1.05,2.67,1.05,4.24v2.16h-12.73
			c0.22,0.89,0.78,1.53,1.66,1.93c0.89,0.4,2.09,0.6,3.62,0.6c1.04,0,2.11-0.09,3.21-0.27c1.1-0.18,2.04-0.42,2.84-0.73v3.86
			c-0.82,0.33-1.84,0.6-3.08,0.81c-1.23,0.21-2.49,0.32-3.77,0.32C188.63,31.03,186.18,30.3,184.39,28.84z M194.48,20.86
			c-0.09-0.86-0.44-1.54-1.06-2.03c-0.62-0.49-1.47-0.73-2.56-0.73c-1.06,0-1.91,0.25-2.53,0.75c-0.62,0.5-0.98,1.17-1.06,2.01
			H194.48z"/>
	</g>
</g>
</svg>
